<svg fill="none" height="333" viewBox="0 0 1200 333" width="1200" xmlns="http://www.w3.org/2000/svg" xmlns:xlink="http://www.w3.org/1999/xlink"><mask id="a" fill="#fff"><path d="m163.597 139.896h-15.222c-1.965 0-3.508 1.544-3.508 3.508v15.222c0 1.964 1.543 3.507 3.508 3.507h15.222c1.964 0 3.507-1.543 3.507-3.507v-15.222c0-1.894-1.614-3.508-3.507-3.508zm.701 18.73c0 .42-.281.701-.701.701l-15.222.001c-.421 0-.702-.281-.702-.702v-15.222c0-.42.28-.701.701-.701h15.222c.421 0 .701.281.701.701z" fill="#fff"/></mask><mask id="b" height="88" maskUnits="userSpaceOnUse" width="66" x="415" y="119"><path d="m480.347 119h-64.876v88h64.876z" fill="#fff"/></mask><rect fill="#fff" height="333" rx="12" width="1200"/><rect fill="#fdeae6" height="331" opacity=".4" rx="11" stroke="#fb755a" stroke-width="2" width="1198" x="1" y="1"/><rect fill="#fbc55a" height="133" rx="24" width="133" x="75" y="99"/><path d="m522.293 164.293c-.391.39-.391 1.024 0 1.414l6.364 6.364c.39.391 1.024.391 1.414 0 .391-.39.391-1.024 0-1.414l-5.657-5.657 5.657-5.657c.391-.39.391-1.024 0-1.414-.39-.391-1.024-.391-1.414 0zm155.707-.293h-155v2h155z" fill="#a0a0b1"/><path d="m984.707 165.707c.391-.39.391-1.024 0-1.414l-6.364-6.364c-.39-.391-1.024-.391-1.414 0-.391.39-.391 1.024 0 1.414l5.657 5.657-5.657 5.657c-.391.39-.391 1.024 0 1.414.39.391 1.024.391 1.414 0zm-155.707.293h155v-2h-155z" fill="#a0a0b1"/><g fill="#fff6e3"><path d="m134.626 139.896h-15.222c-1.964 0-3.508 1.544-3.508 3.508v15.222c0 1.964 1.544 3.507 3.508 3.507h15.222c1.964 0 3.507-1.543 3.507-3.507v-15.222c0-1.894-1.543-3.508-3.507-3.508z"/><path d="m164.298 158.626h3.103zm-.701.701v-3.103h-.001zm-15.222.001v3.103zm-.702-.702h3.104zm0-15.222h-3.104v.001zm16.624 0h-3.103v.001zm-.7-6.611h-15.222v6.207h15.222zm-15.222 0c-3.679 0-6.611 2.933-6.611 6.611h6.207c0-.15.052-.24.108-.296s.146-.108.296-.108zm-6.611 6.611v15.222h6.207v-15.222zm0 15.222c0 3.678 2.932 6.611 6.611 6.611v-6.207c-.15 0-.24-.052-.296-.108s-.108-.146-.108-.296zm6.611 6.611h15.222v-6.207h-15.222zm15.222 0c3.678 0 6.61-2.933 6.61-6.611h-6.207c0 .15-.052.24-.108.296-.055.056-.146.108-.295.108zm6.61-6.611v-15.222h-6.207v15.222zm0-15.222c0-3.609-3.003-6.611-6.61-6.611v6.207c.053 0 .159.025.269.134.11.11.134.216.134.27zm-9.013 15.222c0-.496.179-1.149.716-1.686.538-.538 1.191-.716 1.687-.716v6.207c.916 0 1.92-.32 2.702-1.102.783-.783 1.102-1.787 1.102-2.703zm2.402-2.402h-15.222l.001 6.207h15.222zm-15.221 0c.495 0 1.148.179 1.686.716.537.538.716 1.191.716 1.686h-6.207c0 .917.319 1.921 1.102 2.703.783.783 1.786 1.102 2.703 1.102zm2.402 2.402-.001-15.222-6.207.001.001 15.222zm-.001-15.222c0 .496-.179 1.149-.716 1.687-.537.537-1.19.716-1.686.716v-6.207c-.916 0-1.92.319-2.703 1.102-.783.782-1.102 1.786-1.102 2.702zm-2.402 2.403h15.222v-6.207h-15.222zm15.222 0c-.496 0-1.149-.179-1.686-.716-.537-.538-.716-1.191-.716-1.687h6.207c0-.916-.319-1.92-1.102-2.702-.783-.783-1.787-1.102-2.703-1.102zm-2.402-2.402v15.221h6.207v-15.222z" mask="url(#a)"/><path d="m134.626 168.867h-15.222c-1.964 0-3.508 1.543-3.508 3.507v15.222c0 1.964 1.544 3.507 3.508 3.507h15.222c1.964 0 3.507-1.543 3.507-3.507v-15.222c0-1.964-1.543-3.507-3.507-3.507z"/><path d="m163.597 168.867h-15.222c-1.965 0-3.508 1.543-3.508 3.507v15.222c0 1.964 1.543 3.507 3.508 3.507h15.222c1.964 0 3.507-1.543 3.507-3.507v-15.222c0-1.964-1.614-3.507-3.507-3.507z"/></g><circle cx="447.5" cy="165.5" fill="#fb9d5a" r="66.5"/><g mask="url(#b)"><path clip-rule="evenodd" d="m480.15 173.029c.028.525.041 1.054.041 1.586l-.017.004v.03.034c0 .563-.013 1.122-.044 1.678-.007.151-.02.301-.033.451-.006.071-.012.142-.018.213l-.001.026c-.024.33-.047.664-.08.991-.022.223-.052.444-.083.664-.007.055-.015.109-.022.164-.013.091-.024.183-.036.275-.023.184-.047.367-.076.548-.046.296-.101.588-.157.884l-.006.028c-.013.073-.026.147-.038.221-.019.111-.038.222-.06.332-.005.025-.011.05-.017.074-.006.025-.012.05-.017.075-.068.325-.146.647-.224.969-.013.054-.026.107-.039.161-.036.152-.073.302-.113.453-.088.342-.186.678-.288 1.014-.051.176-.105.352-.16.528-.112.353-.23.702-.356 1.051-.015.042-.029.084-.044.126-.038.11-.077.22-.118.328-.136.367-.278.726-.427 1.085-.028.068-.055.136-.082.204-.012.028-.025.057-.039.086-.013.029-.027.058-.039.086-.163.373-.329.746-.505 1.112-.025.05-.049.1-.073.149-.025.053-.05.105-.076.156-.187.384-.38.763-.583 1.14-.027.045-.052.091-.078.138-.017.03-.034.061-.051.092-.217.393-.437.783-.671 1.166-.031.051-.061.098-.092.149-.251.407-.505.81-.772 1.204 0 .003-.007.01-.007.013-.005.01-.011.018-.017.025-.003.003-.005.006-.007.009-1.451 2.139-3.143 4.102-5.051 5.834l-.007-.006c-.045.04-.091.08-.137.12s-.092.08-.137.12l-6.726-9.434c3.695-3.783 5.98-8.949 5.98-14.641 0-11.563-9.407-20.97-20.97-20.97s-20.97 9.407-20.97 20.97 9.407 20.97 20.97 20.97c3.834 0 7.424-1.037 10.519-2.841l6.651 9.326c-.509.312-1.024.617-1.549.902-.141.077-.286.15-.43.222-.057.029-.114.057-.17.086-.468.241-.94.472-1.421.688-.069.031-.139.063-.208.095-.136.062-.272.125-.409.183-.026.011-.052.023-.078.035-.025.012-.05.023-.074.033-.57.244-1.15.465-1.736.671-.18.066-.366.127-.55.187l-.071.023c-.589.197-1.186.38-1.789.543-.045.013-.089.026-.133.039-.073.022-.146.044-.22.063-.518.132-1.044.254-1.573.362-.106.022-.212.041-.319.059-.073.013-.146.026-.22.04-.203.037-.41.074-.613.108-.716.119-1.438.22-2.17.292-.073.007-.147.012-.22.017-.074.005-.148.01-.221.017-.647.054-1.298.088-1.956.105-.073.001-.147.003-.221.006-.113.004-.225.007-.338.007-.039 0-.078.002-.117.004-.039.001-.078.003-.117.003-.671 0-1.332-.027-1.99-.068-.045-.003-.091-.003-.137-.003s-.092 0-.137-.004c-.202-.014-.401-.034-.601-.054-.092-.009-.185-.018-.277-.027-.036-.003-.071-.006-.106-.009-.041-.004-.082-.008-.125-.011-2.142-.221-4.224-.654-6.227-1.278-.037-.01-.075-.024-.112-.038-.43-.135-.858-.281-1.281-.434-.198-.073-.392-.149-.587-.225l-.037-.015c-.061-.024-.123-.048-.184-.073-.181-.071-.362-.142-.542-.215-.037-.016-.074-.03-.111-.044-.044-.017-.087-.033-.129-.051-.131-.055-.261-.115-.391-.176-.072-.033-.144-.066-.216-.099-.153-.068-.305-.135-.454-.207-.336-.159-.668-.322-1-.491-.041-.021-.082-.042-.122-.063-.041-.021-.082-.042-.122-.063-.38-.196-.756-.403-1.129-.617-.017-.01-.034-.02-.051-.03-.681-.393-1.356-.8-2.007-1.241-1.722-1.163-3.325-2.488-4.79-3.953-1.464-1.464-2.793-3.067-3.956-4.789-.675-1.001-1.291-2.045-1.854-3.119-.009-.019-.018-.037-.027-.054-.01-.018-.019-.036-.027-.054-.197-.38-.39-.763-.573-1.153-.025-.051-.048-.103-.071-.155-.016-.035-.032-.071-.048-.106-.132-.282-.264-.563-.386-.851-.014-.032-.026-.065-.039-.097-.013-.034-.026-.067-.039-.1-.042-.097-.08-.195-.118-.293-.027-.07-.054-.139-.082-.208-.031-.078-.061-.155-.092-.232-.082-.207-.164-.413-.241-.623-.349-.956-.654-1.932-.912-2.925-.001-.007-.002-.014-.004-.021-.009-.041-.018-.084-.029-.125-.116-.454-.224-.912-.319-1.376-.002-.011-.004-.021-.007-.031-.002-.01-.005-.02-.007-.03-.006-.034-.012-.068-.018-.103s-.012-.07-.019-.104c-.085-.417-.159-.841-.227-1.264-.02-.129-.037-.255-.054-.384-.055-.379-.105-.762-.146-1.149-.014-.119-.025-.237-.035-.356-.005-.056-.01-.112-.016-.169-.007-.076-.015-.152-.022-.228-.012-.114-.024-.228-.032-.342-.008-.085-.011-.169-.015-.254-.002-.063-.005-.126-.009-.19-.003-.066-.007-.132-.011-.199-.007-.137-.015-.275-.019-.414-.014-.319-.021-.634-.024-.95 0-.067-.003-.134-.005-.201-.003-.067-.005-.134-.005-.202 0-.037.001-.075.003-.113.002-.039.003-.077.003-.114.004-.336.014-.668.028-1 .002-.062.004-.124.006-.186.003-.125.007-.249.014-.374.024-.45.058-.901.102-1.345v-.009c.003-.058.007-.119.013-.178.054-.505.119-1.006.193-1.505.016-.103.034-.204.052-.306.01-.056.02-.112.03-.169.057-.345.115-.687.183-1.027.007-.03.012-.061.017-.093.005-.031.01-.062.017-.093.015-.079.034-.158.053-.236.01-.04.019-.08.028-.12.068-.319.142-.637.22-.952.045-.177.089-.353.136-.529.088-.322.18-.641.275-.96.047-.162.095-.322.145-.481.112-.353.231-.702.356-1.051.022-.058.043-.117.063-.176.02-.06.041-.119.063-.177.352-.952.749-1.888 1.186-2.796l.051-.102c.203-.417.414-.827.634-1.234.025-.05.053-.099.081-.148.017-.031.034-.061.051-.093.2-.362.407-.722.621-1.077.045-.082.094-.161.143-.24l.006-.008c.223-.363.454-.722.691-1.075.009-.014.018-.028.026-.042.014-.023.027-.045.042-.066.01-.017.022-.033.034-.049.004-.006.009-.012.014-.019.05-.073.099-.148.148-.223.031-.047.061-.093.092-.14h-.007l26.547-37.143s11.56 16.004 5.57 32.967c5.542-6.359 9.481-11.478 9.481-11.478l8.312 11.665.936 1.264c.25.336.498.665.743.99 1.836 2.439 3.497 4.645 4.762 7.63.002.004.004.008.005.012.002.005.004.009.005.012.007.01.011.021.014.031.19.447.366.898.535 1.352.011.028.021.056.031.083.01.028.02.056.03.084.153.416.295.84.431 1.267.031.088.058.176.085.265.122.396.234.796.342 1.2.031.119.061.233.092.349.095.376.183.759.264 1.142.011.054.024.107.036.159.011.047.022.093.032.14l.02.122c.071.363.136.732.197 1.102.012.079.025.158.039.237.013.078.027.157.039.237.054.359.098.719.139 1.081.007.064.015.127.023.189.014.108.027.214.038.323.037.364.06.735.084 1.103l.001.016c.004.064.009.128.014.192.008.097.015.194.019.293zm-47.869 1.712c0-8.438 6.865-15.302 15.302-15.302 8.438 0 15.303 6.864 15.303 15.302 0 8.437-6.865 15.302-15.303 15.302-8.437 0-15.302-6.865-15.302-15.302zm2.631.078h1.983c0-5.845 4.753-10.597 10.597-10.597v-1.983c-6.936 0-12.58 5.644-12.58 12.58z" fill="#fef0e6" fill-rule="evenodd"/></g><circle cx="752.5" cy="165.5" fill="#fb755a" r="66.5"/><path d="m790.659 160.663c-.148-1.34-.295-2.977-.885-4.763-.443-1.786-1.181-3.721-2.214-5.804-1.032-2.084-2.36-4.168-3.984-6.251-.59-.744-1.328-1.637-2.213-2.382 1.181-4.762-1.475-8.781-1.475-8.781-4.427-.297-7.378 1.34-8.411 2.233-.148 0-.295-.149-.59-.298-.738-.298-1.476-.595-2.361-.893s-1.623-.446-2.509-.744c-.885-.149-1.77-.298-2.508-.447-.148 0-.295 0-.443 0-1.918-6.251-7.525-8.93-7.525-8.93-6.197 4.019-7.378 9.526-7.378 9.526v.297c-.295.149-.737.149-1.033.298-.442.149-.885.298-1.475.447-.443.148-.885.297-1.476.595-.885.446-1.918.893-2.803 1.339-.886.447-1.771 1.042-2.656 1.638-.148 0-.148-.149-.148-.149-8.705-3.275-16.378.744-16.378.744-.738 9.228 3.393 15.181 4.279 16.223-.148.595-.443 1.19-.59 1.786-.591 2.083-1.181 4.316-1.476 6.548 0 .298-.148.596-.148.893-7.967 4.019-10.328 12.205-10.328 12.205 6.64 7.739 14.46 8.186 14.46 8.186 1.033 1.786 2.066 3.423 3.394 5.06.59.595 1.18 1.339 1.623 1.935-2.361 6.995.295 12.799.295 12.799 7.378.298 12.247-3.274 13.28-4.167.738.298 1.475.447 2.213.744 2.214.596 4.574.893 6.935 1.042h1.771.295.148.295.295c3.541 5.06 9.591 5.804 9.591 5.804 4.426-4.613 4.574-9.227 4.574-10.269 0-.149 0-.149 0-.149v-.149c.885-.595 1.771-1.339 2.656-2.083 1.771-1.637 3.246-3.423 4.574-5.358.148-.149.295-.298.295-.596 5.017.298 8.411-3.125 8.411-3.125-.885-5.209-3.836-7.739-4.427-8.186 0 0 0 0-.147 0 0-.298 0-.595 0-.893 0-.595 0-1.191 0-1.637v-.744-.149-.149c0-.149 0-.149 0-.149v-.297-.447c0-.149 0-.298 0-.446 0-.149 0-.298 0-.447v-.446-.447c-.148-.595-.148-1.191-.295-1.637-.591-2.233-1.328-4.316-2.509-6.251-1.18-1.935-2.508-3.572-4.131-5.06-1.623-1.489-3.394-2.531-5.312-3.424s-3.837-1.339-5.902-1.637c-1.033-.149-1.919-.149-2.952-.149h-.295-.147-.148-.147-.295c-.148 0-.296 0-.443 0-.443 0-1.033.149-1.476.149-1.918.298-3.836 1.042-5.459 2.084s-3.099 2.232-4.279 3.572c-1.181 1.339-2.066 2.977-2.656 4.614s-.886 3.274-1.033 4.911v1.191.298.297.596c.147.744.295 1.637.443 2.381.442 1.488 1.18 2.828 1.918 4.018.885 1.191 1.918 2.084 2.951 2.828s2.213 1.34 3.394 1.637c1.18.298 2.213.447 3.393.447h.443.148.147.295.148.147.148.443c.147 0 .295 0 .442-.149.295 0 .443-.149.738-.149.443-.149.885-.297 1.328-.595.443-.149.738-.447 1.18-.744.148 0 .148-.149.296-.298.442-.298.442-.893.147-1.191-.295-.297-.738-.446-1.033-.148-.147 0-.147.148-.295.148-.295.149-.59.298-1.033.447-.295.149-.738.149-1.033.298-.147 0-.442 0-.59 0-.147 0-.147 0-.295 0s-.148 0-.295 0c-.148 0-.148 0-.295 0-.148 0-.295 0-.295 0h-.148-.147c-.148 0-.148 0-.296 0-.885-.149-1.623-.298-2.508-.745-.885-.297-1.623-.893-2.361-1.488s-1.328-1.488-1.77-2.232c-.443-.745-.886-1.786-1.033-2.828-.148-.447-.148-1.042-.148-1.489 0-.148 0-.297 0-.446v-.149-.149c0-.297 0-.595.148-.893.442-2.232 1.475-4.316 3.246-6.102.443-.446.885-.744 1.328-1.191.443-.297 1.033-.595 1.475-.893.591-.297 1.181-.446 1.623-.595.591-.149 1.181-.298 1.771-.298h.885.148.295.148.295c.59 0 1.328.149 1.918.298 1.328.298 2.508.744 3.689 1.488 2.361 1.34 4.279 3.424 5.607 5.805.59 1.191 1.033 2.53 1.328 3.87 0 .297.147.744.147 1.041v.298.298.297.298.298.297.596c0 .446 0 .744-.147 1.19 0 .298-.148.745-.148 1.042 0 .298-.147.744-.295 1.042-.147.744-.442 1.488-.738 2.084-.59 1.339-1.328 2.679-2.213 4.018-1.771 2.382-4.131 4.465-6.935 5.656-1.328.595-2.803 1.042-4.279 1.339-.738.149-1.476.149-2.213.298h-.148-.147-.296-.295-.147s.147 0 0 0c-.443 0-.738 0-1.181 0-1.623-.149-3.246-.446-4.721-.893-1.476-.446-3.099-1.042-4.427-1.786-2.804-1.488-5.312-3.572-7.378-6.102-1.033-1.191-1.918-2.53-2.508-4.019-.738-1.488-1.328-2.976-1.771-4.465-.442-1.488-.738-3.125-.738-4.613v-.298-.149-.298-.893-.148-.298-.149c0-.149 0-.446 0-.595 0-.744.148-1.637.148-2.382.148-.744.295-1.637.443-2.381.147-.744.295-1.637.59-2.381.443-1.489 1.033-2.977 1.623-4.465 1.328-2.828 2.951-5.358 5.017-7.293.442-.447 1.033-1.042 1.623-1.488.59-.447 1.18-.893 1.771-1.191.59-.447 1.18-.744 1.77-1.042.295-.149.59-.298.886-.446.147 0 .295-.149.442-.149.148 0 .295-.149.443-.149.59-.298 1.328-.447 1.918-.744.148 0 .295-.149.443-.149.147 0 .295-.149.442-.149.296-.149.738-.149 1.033-.298.148 0 .295-.148.591-.148.147 0 .295 0 .59-.149.147 0 .295 0 .59-.149h.295.295c.148 0 .295 0 .59-.149.148 0 .443 0 .591-.149h.59.442.296.147.148.59.295s.148 0 0 0h.148.442 2.066c1.328 0 2.656.149 3.984.447 2.508.446 4.869 1.339 7.083 2.381 2.213 1.042 4.131 2.381 5.754 3.87.148.149.148.149.295.297.148.149.148.149.295.298.148.149.443.298.591.595.147.298.442.298.59.596.147.297.443.446.59.595.738.744 1.328 1.488 1.918 2.381 1.181 1.489 2.214 3.126 2.951 4.614 0 .149.148.149.148.298s.148.149.148.298c.147.148.147.297.295.595.147.149.147.298.295.595.147.149.147.298.295.596.295.744.59 1.339.738 1.934.295 1.042.59 1.935.737 2.679.148.298.443.596.738.447.295 0 .59-.298.59-.595.591-1.786.591-2.828.443-3.87z" fill="#fdeae6"/><rect fill="#9584eb" height="133" rx="16" width="133" x="992" y="98"/><path d="m1076.22 194.202c-5.03 3.134-10.79 4.793-16.66 4.798-5.61-.001-11.13-1.499-16.01-4.348-4.89-2.849-8.98-6.953-11.87-11.912l-2.03 1.257c-.19.122-.44.11-.63-.031-.18-.141-.26-.382-.21-.612l1.66-6.862c.1-.425.52-.683.93-.577l6.65 1.711c.22.057.39.247.43.48.03.234-.08.466-.27.588l-2.2 1.362c2.79 4.795 6.9 8.628 11.8 11.015 4.9 2.386 10.38 3.219 15.74 2.392 5.37-.826 10.37-3.274 14.38-7.035 4.02-3.761 6.86-8.666 8.17-14.092l4.9 1.261v-.001c-1.02 4.272-2.85 8.293-5.39 11.83s-5.73 6.52-9.39 8.776zm-30.84-52.952c4.13-2.556 8.83-3.948 13.64-4.035 4.81-.086 9.56 1.135 13.77 3.542s7.73 5.915 10.21 10.17l-2.21 1.365c-.19.122-.3.354-.26.588.03.234.2.423.42.48l6.65 1.712v-.001c.41.106.83-.152.93-.577l1.66-6.862c.06-.23-.03-.471-.21-.612-.19-.141-.43-.153-.63-.031l-2.02 1.254c-3.31-5.678-8.17-10.217-13.98-13.043s-12.3-3.811-18.65-2.832-12.28 3.879-17.03 8.333-8.12 10.262-9.67 16.689l4.9 1.261c.86-3.608 2.41-7.003 4.55-9.99s4.84-5.505 7.93-7.41zm-.11 20.204c.32-1.219.79-2.39 1.4-3.488l-4.26-5.905c-.17-.227-.17-.541 0-.764.99-1.265 2.1-2.416 3.33-3.432.22-.176.52-.18.74-.009l5.73 4.397v-.001c1.06-.625 2.2-1.111 3.38-1.445l1.03-7.288c.04-.282.26-.5.53-.532 1.56-.172 3.14-.172 4.7 0 .27.032.49.25.53.532l1.03 7.287v.001c1.19.334 2.32.82 3.39 1.446l5.72-4.398c.22-.17.52-.166.74.01 1.23 1.016 2.34 2.167 3.33 3.433.17.222.17.536 0 .763l-4.26 5.905c.61 1.098 1.08 2.27 1.4 3.489l7.07 1.066c.27.04.48.264.51.546.17 1.613.17 3.238 0 4.851-.03.282-.24.507-.51.547l-7.06 1.066c-.33 1.218-.8 2.39-1.41 3.488l4.27 5.905c.16.227.16.54-.01.763-.99 1.266-2.1 2.417-3.33 3.432-.22.176-.52.181-.74.01l-5.72-4.397c-1.07.625-2.2 1.111-3.39 1.446l-1.03 7.288c-.04.281-.26.5-.53.532-1.56.171-3.14.171-4.7 0-.27-.032-.49-.251-.53-.532l-1.03-7.288c-1.19-.334-2.32-.82-3.38-1.446l-5.73 4.398c-.22.17-.52.166-.74-.01-1.23-1.016-2.34-2.167-3.32-3.433-.18-.223-.18-.536-.01-.763l4.26-5.905c-.61-1.099-1.08-2.27-1.4-3.489l-7.07-1.066c-.27-.04-.48-.264-.51-.546-.17-1.613-.17-3.239 0-4.851.03-.282.24-.507.51-.547zm6.78 4.039v-.001c0 2.039.78 3.994 2.18 5.436 1.4 1.441 3.29 2.251 5.27 2.251s3.87-.81 5.27-2.251c1.4-1.442 2.18-3.397 2.18-5.436 0-2.038-.78-3.994-2.18-5.435-1.4-1.442-3.29-2.252-5.27-2.252s-3.87.81-5.27 2.252c-1.4 1.441-2.18 3.397-2.18 5.435z" fill="#efedfc"/><path d="m74.4283 248.909 4.7493 7.952v5.139h1.9687v-5.139l4.7493-7.952h-2.2436l-3.4198 5.951h-.1406l-3.4197-5.951zm15.4448 13.289c2.7678 0 4.5767-2.026 4.5767-5.062 0-3.056-1.8089-5.082-4.5767-5.082-2.7677 0-4.5767 2.026-4.5767 5.082 0 3.036 1.809 5.062 4.5767 5.062zm.0064-1.604c-1.8089 0-2.6527-1.579-2.6527-3.465 0-1.879.8438-3.477 2.6527-3.477 1.7962 0 2.6399 1.598 2.6399 3.477 0 1.886-.8437 3.465-2.6399 3.465zm12.6535-2.666c.006 1.669-1.234 2.461-2.308 2.461-1.1824 0-2.0006-.856-2.0006-2.192v-6.015h-1.9112v6.245c0 2.435 1.3359 3.701 3.2216 3.701 1.4762 0 2.4802-.78 2.9342-1.828h.102v1.7h1.879v-9.818h-1.917zm4.215 4.072h1.911v-5.996c0-1.285.991-2.211 2.346-2.211.397 0 .844.07.998.115v-1.828c-.192-.026-.569-.045-.812-.045-1.151 0-2.135.652-2.493 1.706h-.102v-1.559h-1.848zm13.989.217c1.624 0 2.538-.824 2.902-1.559h.077v1.342h1.867v-6.52c0-2.857-2.25-3.426-3.81-3.426-1.777 0-3.413.716-4.053 2.506l1.796.409c.282-.697.998-1.368 2.282-1.368 1.234 0 1.867.645 1.867 1.758v.044c0 .697-.716.684-2.48.889-1.86.217-3.765.703-3.765 2.934 0 1.93 1.451 2.991 3.317 2.991zm.416-1.534c-1.08 0-1.86-.486-1.86-1.432 0-1.022.907-1.387 2.013-1.534.62-.083 2.09-.249 2.365-.524v1.266c0 1.163-.927 2.224-2.518 2.224zm6.705 4.999h1.911v-5.21h.115c.346.627 1.049 1.72 2.839 1.72 2.377 0 4.103-1.905 4.103-5.082 0-3.183-1.751-5.056-4.123-5.056-1.821 0-2.48 1.112-2.819 1.719h-.159v-1.591h-1.867zm1.873-8.591c0-2.052.895-3.413 2.563-3.413 1.732 0 2.602 1.463 2.602 3.413 0 1.969-.895 3.471-2.602 3.471-1.643 0-2.563-1.406-2.563-3.471zm8.967 8.591h1.911v-5.21h.115c.345.627 1.048 1.72 2.838 1.72 2.378 0 4.104-1.905 4.104-5.082 0-3.183-1.752-5.056-4.123-5.056-1.822 0-2.48 1.112-2.819 1.719h-.16v-1.591h-1.866zm1.872-8.591c0-2.052.895-3.413 2.564-3.413 1.732 0 2.601 1.463 2.601 3.413 0 1.969-.895 3.471-2.601 3.471-1.643 0-2.564-1.406-2.564-3.471zm10.878-8.182h-1.911v13.091h1.911zm2.301 13.091h1.912v-9.818h-1.912zm.966-11.333c.658 0 1.208-.511 1.208-1.138 0-.626-.55-1.144-1.208-1.144-.665 0-1.209.518-1.209 1.144 0 .627.544 1.138 1.209 1.138zm7.382 11.531c2.321 0 3.823-1.393 4.034-3.305h-1.86c-.243 1.062-1.068 1.688-2.161 1.688-1.617 0-2.659-1.349-2.659-3.49 0-2.103 1.061-3.426 2.659-3.426 1.215 0 1.956.767 2.161 1.687h1.86c-.205-1.981-1.822-3.298-4.053-3.298-2.768 0-4.557 2.084-4.557 5.082 0 2.959 1.726 5.062 4.576 5.062zm8.665.019c1.623 0 2.538-.824 2.902-1.559h.077v1.342h1.866v-6.52c0-2.857-2.25-3.426-3.81-3.426-1.777 0-3.413.716-4.052 2.506l1.796.409c.281-.697.997-1.368 2.282-1.368 1.234 0 1.866.645 1.866 1.758v.044c0 .697-.715.684-2.48.889-1.86.217-3.765.703-3.765 2.934 0 1.93 1.451 2.991 3.318 2.991zm.415-1.534c-1.08 0-1.86-.486-1.86-1.432 0-1.022.908-1.387 2.014-1.534.62-.083 2.09-.249 2.365-.524v1.266c0 1.163-.927 2.224-2.519 2.224zm11.289-8.501h-2.014v-2.352h-1.911v2.352h-1.438v1.534h1.438v5.797c-.006 1.784 1.355 2.647 2.864 2.615.607-.007 1.016-.122 1.24-.205l-.345-1.579c-.128.026-.365.084-.672.084-.62 0-1.176-.205-1.176-1.311v-5.401h2.014zm1.844 9.818h1.911v-9.818h-1.911zm.965-11.333c.659 0 1.208-.511 1.208-1.138 0-.626-.549-1.144-1.208-1.144-.665 0-1.208.518-1.208 1.144 0 .627.543 1.138 1.208 1.138zm7.383 11.531c2.768 0 4.577-2.026 4.577-5.062 0-3.056-1.809-5.082-4.577-5.082s-4.577 2.026-4.577 5.082c0 3.036 1.809 5.062 4.577 5.062zm.006-1.604c-1.809 0-2.652-1.579-2.652-3.465 0-1.879.843-3.477 2.652-3.477 1.797 0 2.64 1.598 2.64 3.477 0 1.886-.843 3.465-2.64 3.465zm8.345-4.424c0-1.566.959-2.46 2.289-2.46 1.297 0 2.083.85 2.083 2.275v6.015h1.912v-6.245c0-2.429-1.336-3.701-3.343-3.701-1.477 0-2.442.684-2.896 1.726h-.121v-1.598h-1.835v9.818h1.911z" fill="#000"/><path d="m403.771 262v-13.091h4.666c3.043 0 4.532 1.828 4.532 4.238 0 2.416-1.502 4.251-4.538 4.251h-2.685v4.602zm1.975-6.277h2.506c1.93 0 2.729-1.093 2.729-2.576s-.799-2.544-2.755-2.544h-2.48zm10.324 9.959c-.576 0-1.074-.109-1.304-.211l.46-1.566c1.048.287 1.732.179 2.218-1.125l.236-.652-3.592-9.946h2.045l2.487 7.619h.102l2.487-7.619h2.052l-4.047 11.128c-.569 1.547-1.566 2.372-3.144 2.372zm8.717-3.682v-9.818h1.847v1.559h.102c.358-1.054 1.343-1.706 2.493-1.706.243 0 .62.019.812.045v1.828c-.153-.045-.601-.115-.997-.115-1.355 0-2.346.926-2.346 2.211v5.996zm10.422.198c-2.768 0-4.577-2.026-4.577-5.062 0-3.056 1.809-5.082 4.577-5.082s4.577 2.026 4.577 5.082c0 3.036-1.809 5.062-4.577 5.062zm.006-1.604c1.797 0 2.64-1.579 2.64-3.465 0-1.879-.843-3.477-2.64-3.477-1.809 0-2.652 1.598-2.652 3.477 0 1.886.843 3.465 2.652 3.465zm13.791-6.015-1.732.307c-.224-.659-.773-1.317-1.962-1.317-1.087 0-1.905.537-1.899 1.291-.006.665.46 1.029 1.541 1.285l1.559.358c1.803.415 2.685 1.272 2.685 2.659 0 1.777-1.643 3.036-4.014 3.036-2.205 0-3.65-.978-3.97-2.716l1.848-.282c.23.965.965 1.458 2.109 1.458 1.253 0 2.065-.595 2.065-1.355 0-.614-.441-1.036-1.387-1.247l-1.662-.364c-1.841-.409-2.685-1.336-2.685-2.73 0-1.738 1.572-2.908 3.791-2.908 2.122 0 3.317.997 3.713 2.525zm6.159 7.619c-2.851 0-4.577-2.103-4.577-5.062 0-2.998 1.79-5.082 4.558-5.082 2.231 0 3.848 1.317 4.052 3.298h-1.86c-.204-.92-.946-1.687-2.16-1.687-1.598 0-2.659 1.323-2.659 3.426 0 2.141 1.042 3.49 2.659 3.49 1.093 0 1.918-.626 2.16-1.688h1.86c-.21 1.912-1.713 3.305-4.033 3.305zm9.943 0c-2.768 0-4.577-2.026-4.577-5.062 0-3.056 1.809-5.082 4.577-5.082s4.577 2.026 4.577 5.082c0 3.036-1.809 5.062-4.577 5.062zm.006-1.604c1.797 0 2.64-1.579 2.64-3.465 0-1.879-.843-3.477-2.64-3.477-1.809 0-2.652 1.598-2.652 3.477 0 1.886.843 3.465 2.652 3.465zm6.434 5.088v-13.5h1.867v1.591h.159c.339-.607.997-1.719 2.819-1.719 2.372 0 4.123 1.873 4.123 5.056 0 3.177-1.726 5.082-4.104 5.082-1.789 0-2.493-1.093-2.838-1.72h-.115v5.21zm1.873-8.591c0 2.065.92 3.471 2.563 3.471 1.707 0 2.602-1.502 2.602-3.471 0-1.95-.87-3.413-2.602-3.413-1.668 0-2.563 1.361-2.563 3.413zm13.198 5.107c-2.896 0-4.673-1.994-4.673-5.043 0-3.017 1.803-5.101 4.539-5.101 2.224 0 4.346 1.387 4.346 4.935v.677h-6.98c.051 1.892 1.151 2.953 2.787 2.953 1.087 0 1.918-.473 2.263-1.4l1.809.326c-.435 1.598-1.95 2.653-4.091 2.653zm-2.761-5.964h5.1c-.006-1.502-.978-2.601-2.46-2.601-1.554 0-2.564 1.208-2.64 2.601z" fill="#000"/><path d="m400.194 280.364c-.06-.504-.302-.895-.726-1.174-.424-.278-.945-.417-1.561-.417-.451 0-.845.073-1.183.218-.335.146-.597.347-.786.602-.186.255-.278.545-.278.87 0 .272.064.506.194.701.132.192.301.353.507.482.205.126.421.231.646.314.225.079.432.144.621.193l1.034.279c.266.069.561.166.885.288.329.123.642.29.94.502.302.209.55.478.746.806.195.328.293.731.293 1.208 0 .55-.144 1.047-.432 1.491-.285.444-.703.797-1.253 1.059-.547.262-1.212.393-1.994.393-.729 0-1.36-.118-1.894-.353-.53-.235-.948-.563-1.253-.984-.302-.421-.472-.91-.512-1.467h1.273c.033.384.162.703.388.955.228.248.517.434.865.556.351.12.729.179 1.133.179.471 0 .893-.076 1.268-.228.374-.156.671-.372.89-.647.219-.278.328-.603.328-.974 0-.338-.095-.613-.283-.825-.189-.212-.438-.385-.746-.517-.308-.133-.642-.249-.999-.348l-1.253-.358c-.796-.229-1.426-.556-1.89-.98s-.696-.979-.696-1.665c0-.57.155-1.068.463-1.492.311-.427.729-.759 1.253-.994.527-.239 1.115-.358 1.765-.358.656 0 1.239.118 1.75.353.51.232.914.55 1.213.955.301.404.46.863.477 1.377zm6.521 0v.994h-3.957v-.994zm-2.804-1.83h1.174v7.278c0 .332.048.581.144.746.099.163.225.272.378.328.155.053.319.08.492.08.129 0 .235-.007.318-.02.083-.017.149-.03.199-.04l.238 1.054c-.079.03-.19.06-.333.09-.142.033-.323.049-.542.049-.331 0-.656-.071-.974-.213-.315-.143-.577-.36-.786-.652-.205-.291-.308-.659-.308-1.103zm7.589 9.625c-.689 0-1.294-.164-1.814-.492-.517-.328-.922-.787-1.213-1.377-.289-.59-.433-1.28-.433-2.068 0-.796.144-1.49.433-2.084.291-.593.696-1.053 1.213-1.382.52-.328 1.125-.492 1.814-.492.69 0 1.293.164 1.81.492.52.329.925.789 1.213 1.382.292.594.438 1.288.438 2.084 0 .788-.146 1.478-.438 2.068-.288.59-.693 1.049-1.213 1.377-.517.328-1.12.492-1.81.492zm0-1.054c.524 0 .955-.134 1.293-.403.338-.268.588-.621.751-1.059.162-.437.243-.911.243-1.421 0-.511-.081-.986-.243-1.427-.163-.441-.413-.797-.751-1.069s-.769-.408-1.293-.408c-.523 0-.954.136-1.292.408s-.589.628-.751 1.069-.244.916-.244 1.427c0 .51.082.984.244 1.421.162.438.413.791.751 1.059.338.269.769.403 1.292.403zm5.252.895v-7.636h1.133v1.153h.08c.139-.378.391-.684.755-.92.365-.235.776-.353 1.233-.353.086 0 .194.002.323.005.13.004.227.009.294.015v1.193c-.04-.01-.131-.024-.274-.044-.139-.024-.286-.035-.442-.035-.371 0-.703.078-.994.234-.289.152-.517.364-.687.636-.165.268-.248.575-.248.92v4.832zm7.456.179c-.484 0-.923-.091-1.318-.273-.394-.186-.707-.453-.939-.801-.232-.351-.348-.775-.348-1.273 0-.437.086-.792.258-1.064.172-.275.403-.49.691-.646.289-.156.607-.272.955-.348.351-.079.704-.142 1.059-.189.464-.059.84-.104 1.128-.134.292-.033.504-.088.637-.164.136-.076.203-.209.203-.398v-.04c0-.49-.134-.871-.402-1.143-.265-.272-.668-.408-1.208-.408-.56 0-1 .123-1.318.368s-.542.507-.671.786l-1.114-.398c.199-.464.464-.825.796-1.084.335-.262.699-.444 1.094-.547.397-.106.788-.159 1.173-.159.245 0 .527.03.845.09.322.056.631.174.93.353.301.179.552.449.75.81.199.361.299.845.299 1.452v5.031h-1.174v-1.034h-.059c-.08.166-.212.343-.398.532s-.432.35-.741.482c-.308.133-.684.199-1.128.199zm.179-1.054c.464 0 .855-.091 1.173-.273.322-.183.563-.418.726-.706.166-.289.248-.592.248-.91v-1.074c-.049.06-.159.114-.328.164-.165.046-.358.088-.576.124-.216.033-.426.063-.632.09-.202.023-.366.043-.492.059-.305.04-.59.105-.855.194-.262.086-.474.217-.636.393-.16.172-.239.408-.239.706 0 .408.151.716.452.925.305.205.691.308 1.159.308zm8.545 3.898c-.567 0-1.054-.073-1.462-.219-.408-.143-.747-.331-1.019-.567-.269-.232-.482-.48-.642-.746l.935-.656c.106.139.24.299.403.477.162.183.384.34.666.473.285.136.658.204 1.119.204.616 0 1.125-.15 1.526-.448s.601-.765.601-1.402v-1.551h-.099c-.086.139-.209.312-.368.517-.156.202-.381.383-.676.542-.292.156-.686.234-1.183.234-.617 0-1.17-.146-1.661-.438-.487-.291-.873-.716-1.158-1.273-.282-.556-.423-1.233-.423-2.028 0-.782.138-1.463.413-2.043.275-.584.658-1.034 1.148-1.353.491-.321 1.058-.482 1.701-.482.497 0 .891.083 1.183.249.295.162.52.348.676.557.159.205.282.374.368.507h.119v-1.213h1.134v7.855c0 .656-.149 1.19-.448 1.601-.295.414-.692.717-1.193.909-.497.196-1.051.294-1.66.294zm-.04-4.196c.471 0 .868-.108 1.193-.323.325-.216.572-.526.741-.93s.253-.888.253-1.452c0-.55-.082-1.036-.248-1.457-.166-.42-.411-.75-.736-.989s-.726-.358-1.203-.358c-.497 0-.912.126-1.243.378-.328.252-.575.59-.741 1.014-.162.424-.243.895-.243 1.412 0 .53.082.999.248 1.407.169.404.418.723.746.955.331.228.742.343 1.233.343zm8.69 1.332c-.736 0-1.37-.162-1.904-.487-.53-.328-.94-.786-1.228-1.372-.285-.59-.427-1.276-.427-2.059 0-.782.142-1.471.427-2.068.288-.6.69-1.067 1.203-1.402.517-.338 1.12-.507 1.81-.507.398 0 .79.066 1.178.199s.741.348 1.059.646c.318.295.572.686.761 1.174.189.487.283 1.087.283 1.799v.498h-5.886v-1.015h4.693c0-.431-.086-.815-.259-1.153-.169-.338-.411-.605-.725-.8-.312-.196-.68-.294-1.104-.294-.467 0-.872.116-1.213.348-.338.229-.598.527-.781.895-.182.368-.273.762-.273 1.183v.676c0 .577.099 1.066.298 1.467.202.398.482.701.84.91.358.205.774.308 1.248.308.308 0 .587-.043.835-.129.252-.09.469-.222.652-.398.182-.179.323-.401.422-.666l1.134.318c-.119.385-.32.723-.602 1.014-.281.289-.629.514-1.044.676-.414.16-.88.239-1.397.239zm11.867-.855v-6.563h1.114v6.563zm-2.724-2.724v-1.114h6.562v1.114zm18.118 6.284v-4.037h-.1c-.086.139-.209.315-.368.527-.159.208-.386.396-.681.561-.295.163-.687.244-1.178.244-.636 0-1.198-.161-1.685-.482-.488-.325-.869-.782-1.144-1.372-.275-.594-.412-1.295-.412-2.103 0-.802.137-1.498.412-2.088s.658-1.046 1.149-1.368c.49-.321 1.057-.482 1.7-.482.497 0 .89.083 1.178.249.292.162.514.348.666.557.156.205.277.374.363.507h.139v-1.213h1.134v10.5zm-2.168-3.759c.471 0 .868-.123 1.193-.368.325-.248.572-.591.741-1.029.169-.441.254-.949.254-1.526 0-.57-.083-1.069-.249-1.497-.166-.431-.411-.765-.736-1.004-.325-.242-.726-.363-1.203-.363-.497 0-.911.128-1.243.383-.328.252-.575.595-.741 1.029-.162.431-.243.915-.243 1.452 0 .543.083 1.037.248 1.481.169.441.418.792.746 1.054.332.259.743.388 1.233.388zm10.301-2.227v-4.514h1.174v7.636h-1.174v-1.293h-.079c-.179.388-.458.718-.836.99-.377.268-.855.402-1.431.402-.478 0-.902-.104-1.273-.313-.371-.212-.663-.53-.875-.954-.212-.428-.318-.966-.318-1.616v-4.852h1.173v4.772c0 .557.156 1.001.467 1.333.315.331.716.497 1.203.497.292 0 .589-.075.89-.224.305-.149.561-.378.766-.686.209-.308.313-.701.313-1.178zm6.524 3.281c-.736 0-1.37-.162-1.904-.487-.53-.328-.94-.786-1.228-1.372-.285-.59-.427-1.276-.427-2.059 0-.782.142-1.471.427-2.068.288-.6.689-1.067 1.203-1.402.517-.338 1.12-.507 1.81-.507.398 0 .79.066 1.178.199s.741.348 1.059.646c.318.295.572.686.761 1.174.189.487.283 1.087.283 1.799v.498h-5.886v-1.015h4.693c0-.431-.086-.815-.259-1.153-.169-.338-.411-.605-.725-.8-.312-.196-.68-.294-1.104-.294-.467 0-.872.116-1.213.348-.338.229-.598.527-.781.895-.182.368-.273.762-.273 1.183v.676c0 .577.099 1.066.298 1.467.202.398.482.701.84.91.358.205.774.308 1.248.308.308 0 .587-.043.835-.129.252-.09.469-.222.652-.398.182-.179.323-.401.422-.666l1.134.318c-.12.385-.32.723-.602 1.014-.281.289-.63.514-1.044.676-.414.16-.88.239-1.397.239zm4.947-.159v-7.636h1.133v1.153h.08c.139-.378.391-.684.756-.92.364-.235.775-.353 1.233-.353.086 0 .194.002.323.005.129.004.227.009.293.015v1.193c-.04-.01-.131-.024-.273-.044-.14-.024-.287-.035-.443-.035-.371 0-.702.078-.994.234-.288.152-.517.364-.686.636-.166.268-.249.575-.249.92v4.832zm6.197 2.864c-.199 0-.376-.017-.532-.05-.156-.03-.263-.06-.323-.09l.298-1.034c.285.073.537.1.756.08s.413-.118.582-.293c.172-.173.329-.453.472-.841l.219-.596-2.824-7.676h1.272l2.108 6.085h.08l2.108-6.085h1.273l-3.242 8.75c-.146.394-.326.721-.542.979-.215.262-.465.456-.75.582-.282.126-.6.189-.955.189z" fill="#000"/><path d="m216.293 136.293c-.391.39-.391 1.024 0 1.414l6.364 6.364c.39.391 1.024.391 1.414 0 .391-.39.391-1.024 0-1.414l-5.657-5.657 5.657-5.657c.391-.39.391-1.024 0-1.414-.39-.391-1.024-.391-1.414 0zm155.707-.293h-155v2h155z" fill="#a0a0b1"/><rect fill="#fff" height="31" rx="15.5" width="104" x="243" y="122"/><path d="m258.193 137.053c-.264-1.019-1.061-1.684-2.476-1.684-1.479 0-2.527.78-2.527 1.939 0 .929.563 1.547 1.79 1.82l1.108.243c.631.14.925.422.925.831 0 .507-.542.903-1.377.903-.763 0-1.253-.328-1.406-.971l-1.232.187c.213 1.159 1.177 1.811 2.647 1.811 1.581 0 2.676-.839 2.676-2.024 0-.925-.588-1.496-1.79-1.773l-1.04-.238c-.72-.171-1.031-.414-1.027-.857-.004-.503.542-.861 1.266-.861.793 0 1.159.439 1.308.878zm4.286 5.079c1.547 0 2.548-.929 2.689-2.203h-1.24c-.162.707-.712 1.125-1.441 1.125-1.078 0-1.772-.899-1.772-2.327 0-1.402.707-2.284 1.772-2.284.81 0 1.304.512 1.441 1.125h1.24c-.137-1.321-1.215-2.199-2.702-2.199-1.845 0-3.038 1.39-3.038 3.388 0 1.973 1.15 3.375 3.051 3.375zm4.051-.132h1.275v-3.997c0-.857.66-1.475 1.563-1.475.265 0 .563.047.665.077v-1.219c-.128-.017-.379-.029-.541-.029-.767 0-1.423.434-1.662 1.137h-.068v-1.039h-1.232zm6.452.145c1.082 0 1.692-.55 1.935-1.04h.051v.895h1.244v-4.347c0-1.904-1.5-2.284-2.54-2.284-1.184 0-2.275.478-2.701 1.671l1.197.272c.188-.464.665-.911 1.521-.911.823 0 1.245.43 1.245 1.171v.03c0 .465-.478.456-1.654.593-1.24.144-2.51.468-2.51 1.956 0 1.287.968 1.994 2.212 1.994zm.277-1.023c-.72 0-1.24-.324-1.24-.954 0-.682.605-.925 1.342-1.023.414-.056 1.394-.166 1.577-.35v.844c0 .776-.618 1.483-1.679 1.483zm4.65 3.333h1.274v-3.473h.077c.23.417.699 1.146 1.892 1.146 1.585 0 2.736-1.27 2.736-3.388 0-2.122-1.168-3.371-2.749-3.371-1.214 0-1.653.742-1.879 1.147h-.106v-1.061h-1.245zm1.249-5.728c0-1.368.596-2.275 1.709-2.275 1.154 0 1.734.976 1.734 2.275 0 1.313-.597 2.314-1.734 2.314-1.096 0-1.709-.937-1.709-2.314zm8.979 3.405c1.427 0 2.437-.703 2.727-1.768l-1.206-.218c-.23.618-.784.934-1.509.934-1.091 0-1.824-.708-1.858-1.969h4.654v-.452c0-2.365-1.415-3.29-2.898-3.29-1.824 0-3.026 1.39-3.026 3.401 0 2.033 1.185 3.362 3.116 3.362zm-1.841-3.976c.051-.929.724-1.734 1.76-1.734.988 0 1.636.733 1.64 1.734zm9.238 6.299h1.274v-3.473h.077c.23.417.699 1.146 1.892 1.146 1.585 0 2.736-1.27 2.736-3.388 0-2.122-1.168-3.371-2.749-3.371-1.214 0-1.653.742-1.879 1.147h-.106v-1.061h-1.245zm1.249-5.728c0-1.368.596-2.275 1.709-2.275 1.154 0 1.734.976 1.734 2.275 0 1.313-.597 2.314-1.734 2.314-1.096 0-1.709-.937-1.709-2.314zm6.158 3.273h1.274v-3.997c0-.857.66-1.475 1.564-1.475.264 0 .562.047.664.077v-1.219c-.127-.017-.379-.029-.541-.029-.767 0-1.423.434-1.662 1.137h-.068v-1.039h-1.231zm7.128.132c1.845 0 3.051-1.351 3.051-3.375 0-2.037-1.206-3.388-3.051-3.388s-3.051 1.351-3.051 3.388c0 2.024 1.206 3.375 3.051 3.375zm.004-1.07c-1.206 0-1.768-1.052-1.768-2.309 0-1.253.562-2.318 1.768-2.318 1.197 0 1.76 1.065 1.76 2.318 0 1.257-.563 2.309-1.76 2.309zm7.584-5.607h-1.41v-.589c0-.579.238-.894.86-.894.265 0 .452.059.571.098l.299-1.032c-.179-.068-.55-.174-1.066-.174-1.035 0-1.943.605-1.943 1.832v.759h-1.01v1.022h1.01v5.523h1.279v-5.523h1.41zm1.315 6.545h1.274v-6.545h-1.274zm.643-7.555c.439 0 .806-.341.806-.759s-.367-.763-.806-.763c-.443 0-.805.345-.805.763s.362.759.805.759zm3.619-1.172h-1.274v8.727h1.274zm4.535 8.859c1.428 0 2.438-.703 2.728-1.768l-1.206-.218c-.23.618-.784.934-1.509.934-1.091 0-1.824-.708-1.858-1.969h4.654v-.452c0-2.365-1.415-3.29-2.898-3.29-1.824 0-3.026 1.39-3.026 3.401 0 2.033 1.185 3.362 3.115 3.362zm-1.841-3.976c.052-.929.725-1.734 1.76-1.734.989 0 1.637.733 1.641 1.734zm10.968-1.103c-.264-1.019-1.061-1.684-2.476-1.684-1.478 0-2.527.78-2.527 1.939 0 .929.563 1.547 1.79 1.82l1.108.243c.631.14.925.422.925.831 0 .507-.541.903-1.377.903-.762 0-1.253-.328-1.406-.971l-1.231.187c.213 1.159 1.176 1.811 2.646 1.811 1.581 0 2.676-.839 2.676-2.024 0-.925-.588-1.496-1.79-1.773l-1.04-.238c-.72-.171-1.031-.414-1.027-.857-.004-.503.542-.861 1.266-.861.793 0 1.159.439 1.308.878z" fill="#000"/><rect height="31" rx="15.5" stroke="#a0a0b1" stroke-width="2" width="104" x="243" y="122"/><path d="m372.707 193.707c.391-.39.391-1.024 0-1.414l-6.364-6.364c-.39-.391-1.024-.391-1.414 0-.391.39-.391 1.024 0 1.414l5.657 5.657-5.657 5.657c-.391.39-.391 1.024 0 1.414.39.391 1.024.391 1.414 0zm-155.707.293h155v-2h-155z" fill="#a0a0b1"/><rect fill="#fff" height="31" rx="15.5" width="93" x="248" y="178"/><path d="m258.226 200.455v-9h1.244v1.061h.107c.225-.405.664-1.147 1.879-1.147 1.581 0 2.748 1.249 2.748 3.371 0 2.118-1.15 3.388-2.735 3.388-1.194 0-1.662-.729-1.892-1.146h-.077v3.473zm1.248-5.728c0 1.377.614 2.314 1.709 2.314 1.138 0 1.734-1.001 1.734-2.314 0-1.299-.579-2.275-1.734-2.275-1.112 0-1.709.907-1.709 2.275zm10.304.559v-3.831h1.279v6.545h-1.253v-1.134h-.068c-.303.699-.972 1.219-1.956 1.219-1.257 0-2.148-.844-2.148-2.467v-4.163h1.274v4.009c0 .891.546 1.462 1.334 1.462.716 0 1.542-.528 1.538-1.64zm7.895-2.233-1.154.204c-.15-.439-.516-.878-1.309-.878-.724 0-1.269.358-1.265.861-.004.443.307.686 1.027.857l1.04.238c1.201.277 1.789.848 1.789 1.773 0 1.185-1.095 2.024-2.676 2.024-1.47 0-2.433-.652-2.646-1.811l1.231-.187c.154.643.644.971 1.407.971.835 0 1.376-.396 1.376-.903 0-.409-.294-.691-.925-.831l-1.108-.243c-1.227-.273-1.789-.891-1.789-1.82 0-1.159 1.048-1.939 2.527-1.939 1.414 0 2.211.665 2.475 1.684zm2.803 1.061v3.886h-1.274v-8.727h1.257v3.247h.081c.307-.708.921-1.151 1.939-1.151 1.347 0 2.242.836 2.242 2.468v4.163h-1.274v-4.01c0-.959-.525-1.517-1.402-1.517-.908 0-1.569.597-1.569 1.641zm9.121 6.341v-9h1.244v1.061h.107c.225-.405.664-1.147 1.879-1.147 1.581 0 2.748 1.249 2.748 3.371 0 2.118-1.15 3.388-2.735 3.388-1.194 0-1.662-.729-1.892-1.146h-.077v3.473zm1.248-5.728c0 1.377.614 2.314 1.709 2.314 1.138 0 1.735-1.001 1.735-2.314 0-1.299-.58-2.275-1.735-2.275-1.112 0-1.709.907-1.709 2.275zm6.158 3.273v-6.545h1.232v1.039h.068c.238-.703.895-1.137 1.662-1.137.162 0 .413.012.541.029v1.219c-.102-.03-.401-.077-.665-.077-.903 0-1.564.618-1.564 1.475v3.997zm7.128.132c-1.845 0-3.051-1.351-3.051-3.375 0-2.037 1.206-3.388 3.051-3.388s3.051 1.351 3.051 3.388c0 2.024-1.206 3.375-3.051 3.375zm.004-1.07c1.198 0 1.76-1.052 1.76-2.309 0-1.253-.562-2.318-1.76-2.318-1.205 0-1.768 1.065-1.768 2.318 0 1.257.563 2.309 1.768 2.309zm7.585-5.607v1.022h-1.411v5.523h-1.278v-5.523h-1.01v-1.022h1.01v-.759c0-1.227.907-1.832 1.943-1.832.516 0 .886.106 1.065.174l-.298 1.032c-.119-.039-.307-.098-.571-.098-.622 0-.861.315-.861.894v.589zm1.314 6.545v-6.545h1.274v6.545zm.644-7.555c-.443 0-.806-.341-.806-.759s.363-.763.806-.763c.439 0 .805.345.805.763s-.366.759-.805.759zm3.619-1.172v8.727h-1.274v-8.727zm4.535 8.859c-1.931 0-3.115-1.329-3.115-3.362 0-2.011 1.202-3.401 3.025-3.401 1.483 0 2.898.925 2.898 3.29v.452h-4.653c.034 1.261.767 1.969 1.858 1.969.724 0 1.278-.316 1.508-.934l1.206.218c-.29 1.065-1.3 1.768-2.727 1.768zm-1.841-3.976h3.401c-.005-1.001-.652-1.734-1.641-1.734-1.036 0-1.709.805-1.76 1.734zm10.968-1.103-1.155.204c-.149-.439-.516-.878-1.308-.878-.725 0-1.27.358-1.266.861-.004.443.307.686 1.027.857l1.04.238c1.201.277 1.789.848 1.789 1.773 0 1.185-1.095 2.024-2.676 2.024-1.47 0-2.433-.652-2.646-1.811l1.232-.187c.153.643.643.971 1.406.971.835 0 1.376-.396 1.376-.903 0-.409-.294-.691-.924-.831l-1.108-.243c-1.228-.273-1.79-.891-1.79-1.82 0-1.159 1.048-1.939 2.527-1.939 1.415 0 2.211.665 2.476 1.684z" fill="#000"/><rect height="31" rx="15.5" stroke="#a0a0b1" stroke-width="2" width="93" x="248" y="178"/><path d="m292.696 169.132c-1.846 0-3.051-1.351-3.051-3.375 0-2.037 1.205-3.388 3.051-3.388 1.845 0 3.051 1.351 3.051 3.388 0 2.024-1.206 3.375-3.051 3.375zm.004-1.07c1.197 0 1.76-1.052 1.76-2.309 0-1.253-.563-2.318-1.76-2.318-1.206 0-1.769 1.065-1.769 2.318 0 1.257.563 2.309 1.769 2.309zm4.469.938v-6.545h1.232v1.039h.068c.238-.703.895-1.137 1.662-1.137.162 0 .413.012.541.029v1.219c-.102-.03-.401-.077-.665-.077-.903 0-1.564.618-1.564 1.475v3.997z" fill="#000"/><rect fill="#fff" height="31" rx="15.5" width="52" x="575" y="150"/><path d="m589.682 172.455h1.274v-9h-1.244v1.061h-.107c-.23-.405-.665-1.147-1.883-1.147-1.581 0-2.745 1.249-2.745 3.371 0 2.118 1.147 3.388 2.736 3.388 1.193 0 1.662-.729 1.892-1.146h.077zm-1.688-3.414c-1.137 0-1.73-1.001-1.73-2.314 0-1.299.58-2.275 1.73-2.275 1.113 0 1.709.907 1.709 2.275 0 1.377-.609 2.314-1.709 2.314zm8.821-1.755c.005 1.112-.822 1.64-1.538 1.64-.788 0-1.334-.571-1.334-1.462v-4.009h-1.274v4.163c0 1.623.891 2.467 2.148 2.467.984 0 1.653-.52 1.956-1.219h.068v1.134h1.253v-6.545h-1.279zm5.812 2.846c1.427 0 2.437-.703 2.727-1.768l-1.206-.218c-.23.618-.784.934-1.508.934-1.091 0-1.824-.708-1.858-1.969h4.653v-.452c0-2.365-1.415-3.29-2.898-3.29-1.824 0-3.025 1.39-3.025 3.401 0 2.033 1.184 3.362 3.115 3.362zm-1.841-3.976c.051-.929.724-1.734 1.76-1.734.988 0 1.636.733 1.64 1.734zm6.063 3.844h1.274v-3.997c0-.857.66-1.475 1.564-1.475.264 0 .562.047.665.077v-1.219c-.128-.017-.38-.029-.542-.029-.767 0-1.423.434-1.662 1.137h-.068v-1.039h-1.231zm5.61 2.455c1.052 0 1.717-.55 2.096-1.581l2.698-7.419h-1.368l-1.658 5.079h-.068l-1.658-5.079h-1.363l2.395 6.63-.158.435c-.324.869-.78.942-1.479.75l-.307 1.044c.154.068.486.141.87.141z" fill="#000"/><rect height="31" rx="15.5" stroke="#a0a0b1" stroke-width="2" width="52" x="575" y="150"/><path d="m725.016 277.818 3.023 8.571h.119l3.023-8.571h1.292l-3.738 10.182h-1.273l-3.739-10.182zm8.884 10.182v-7.636h1.173v7.636zm.597-8.909c-.229 0-.426-.078-.592-.234-.162-.156-.244-.343-.244-.562 0-.218.082-.406.244-.561.166-.156.363-.234.592-.234.228 0 .424.078.586.234.166.155.249.343.249.561 0 .219-.083.406-.249.562-.162.156-.358.234-.586.234zm8.134 2.983-1.054.298c-.066-.176-.164-.346-.293-.512-.126-.169-.298-.308-.517-.418-.219-.109-.499-.164-.84-.164-.467 0-.857.108-1.168.324-.309.212-.463.482-.463.81 0 .292.106.522.318.691s.544.31.995.423l1.133.278c.683.166 1.192.419 1.526.761.335.338.503.774.503 1.307 0 .438-.126.829-.378 1.173-.249.345-.597.617-1.044.816-.448.199-.968.298-1.561.298-.779 0-1.424-.169-1.934-.507-.511-.338-.834-.832-.97-1.482l1.114-.278c.106.411.306.719.601.925.299.205.688.308 1.169.308.547 0 .981-.116 1.302-.348.325-.235.488-.517.488-.845 0-.265-.093-.487-.279-.666-.185-.183-.471-.319-.855-.408l-1.273-.298c-.699-.166-1.213-.423-1.541-.771-.325-.351-.487-.79-.487-1.317 0-.431.121-.812.363-1.144.245-.331.578-.591.999-.78.424-.189.905-.284 1.442-.284.756 0 1.349.166 1.78.497.434.332.742.769.924 1.313zm6.718 2.804v-4.514h1.174v7.636h-1.174v-1.293h-.079c-.179.388-.458.718-.836.99-.377.268-.855.402-1.431.402-.478 0-.902-.104-1.273-.313-.371-.212-.663-.53-.875-.954-.212-.428-.318-.966-.318-1.616v-4.852h1.173v4.772c0 .557.156 1.001.467 1.333.315.331.716.497 1.204.497.291 0 .588-.075.889-.224.305-.149.561-.378.766-.686.209-.308.313-.701.313-1.178zm5.57 3.301c-.484 0-.923-.091-1.318-.273-.394-.186-.707-.453-.939-.801-.232-.351-.348-.775-.348-1.273 0-.437.086-.792.258-1.064.172-.275.403-.49.691-.646s.607-.272.955-.348c.351-.079.704-.142 1.059-.189.464-.059.84-.104 1.128-.134.292-.033.504-.088.637-.164.135-.076.203-.209.203-.398v-.04c0-.49-.134-.871-.402-1.143-.265-.272-.668-.408-1.208-.408-.561 0-1 .123-1.318.368s-.542.507-.671.786l-1.114-.398c.199-.464.464-.825.796-1.084.335-.262.699-.444 1.094-.547.397-.106.788-.159 1.173-.159.245 0 .527.03.845.09.321.056.631.174.93.353.301.179.552.449.75.81.199.361.299.845.299 1.452v5.031h-1.174v-1.034h-.059c-.08.166-.212.343-.398.532s-.433.35-.741.482c-.308.133-.684.199-1.128.199zm.179-1.054c.464 0 .855-.091 1.173-.273.321-.183.563-.418.726-.706.166-.289.248-.592.248-.91v-1.074c-.049.06-.159.114-.328.164-.165.046-.358.088-.576.124-.216.033-.426.063-.632.09-.202.023-.366.043-.492.059-.305.04-.59.105-.855.194-.262.086-.474.217-.637.393-.159.172-.238.408-.238.706 0 .408.151.716.452.925.305.205.691.308 1.159.308zm6.635-9.307v10.182h-1.173v-10.182zm2.149 10.182v-7.636h1.174v7.636zm.597-8.909c-.229 0-.426-.078-.592-.234-.162-.156-.243-.343-.243-.562 0-.218.081-.406.243-.561.166-.156.363-.234.592-.234s.424.078.587.234c.165.155.248.343.248.561 0 .219-.083.406-.248.562-.163.156-.358.234-.587.234zm2.507 8.909v-.895l4.335-5.568v-.08h-4.196v-1.093h5.708v.934l-4.216 5.529v.079h4.355v1.094zm10.776.159c-.736 0-1.371-.162-1.904-.487-.531-.328-.94-.786-1.228-1.372-.285-.59-.428-1.276-.428-2.059 0-.782.143-1.471.428-2.068.288-.6.689-1.067 1.203-1.402.517-.338 1.12-.507 1.81-.507.397 0 .79.066 1.178.199s.741.348 1.059.646c.318.295.572.686.76 1.174.189.487.284 1.087.284 1.799v.498h-5.887v-1.015h4.694c0-.431-.087-.815-.259-1.153-.169-.338-.411-.605-.726-.8-.311-.196-.679-.294-1.103-.294-.468 0-.872.116-1.213.348-.339.229-.599.527-.781.895s-.273.762-.273 1.183v.676c0 .577.099 1.066.298 1.467.202.398.482.701.84.91.358.205.774.308 1.248.308.308 0 .587-.043.835-.129.252-.09.469-.222.651-.398.183-.179.324-.401.423-.666l1.134.318c-.12.385-.32.723-.602 1.014-.282.289-.63.514-1.044.676-.414.16-.88.239-1.397.239z" fill="#000"/><path d="m729.532 253.045h2.027c-.441-2.551-2.621-4.315-5.446-4.315-3.388 0-5.862 2.551-5.862 6.731 0 4.142 2.404 6.718 5.951 6.718 3.177 0 5.446-2.084 5.446-5.389v-1.489h-5.145v1.63h3.234c-.045 2.109-1.438 3.445-3.535 3.445-2.307 0-3.989-1.745-3.989-4.928 0-3.17 1.694-4.915 3.912-4.915 1.739 0 2.915.958 3.407 2.512zm4.2 8.955h1.911v-5.996c0-1.285.991-2.211 2.346-2.211.396 0 .844.07.997.115v-1.828c-.191-.026-.569-.045-.811-.045-1.151 0-2.135.652-2.493 1.706h-.103v-1.559h-1.847zm9.408.217c1.623 0 2.537-.824 2.902-1.559h.076v1.342h1.867v-6.52c0-2.857-2.25-3.426-3.81-3.426-1.777 0-3.413.716-4.052 2.506l1.796.409c.281-.697.997-1.368 2.282-1.368 1.233 0 1.866.645 1.866 1.758v.044c0 .697-.716.684-2.48.889-1.86.217-3.765.703-3.765 2.934 0 1.93 1.451 2.991 3.318 2.991zm.415-1.534c-1.08 0-1.86-.486-1.86-1.432 0-1.022.908-1.387 2.013-1.534.621-.083 2.091-.249 2.366-.524v1.266c0 1.163-.927 2.224-2.519 2.224zm11.378-8.501h-2.116v-.882c0-.87.358-1.343 1.291-1.343.397 0 .678.09.857.147l.447-1.546c-.268-.103-.824-.263-1.598-.263-1.553 0-2.914.908-2.914 2.749v1.138h-1.515v1.534h1.515v8.284h1.917v-8.284h2.116zm4.26 10.035c1.624 0 2.538-.824 2.902-1.559h.077v1.342h1.867v-6.52c0-2.857-2.25-3.426-3.81-3.426-1.777 0-3.414.716-4.053 2.506l1.796.409c.282-.697.998-1.368 2.282-1.368 1.234 0 1.867.645 1.867 1.758v.044c0 .697-.716.684-2.48.889-1.86.217-3.765.703-3.765 2.934 0 1.93 1.451 2.991 3.317 2.991zm.416-1.534c-1.08 0-1.86-.486-1.86-1.432 0-1.022.907-1.387 2.013-1.534.62-.083 2.09-.249 2.365-.524v1.266c0 1.163-.927 2.224-2.518 2.224zm8.616-4.513c0-1.566.959-2.46 2.289-2.46 1.297 0 2.084.85 2.084 2.275v6.015h1.911v-6.245c0-2.429-1.336-3.701-3.343-3.701-1.477 0-2.442.684-2.896 1.726h-.121v-1.598h-1.835v9.818h1.911zm11.434 6.047c1.624 0 2.538-.824 2.902-1.559h.077v1.342h1.866v-6.52c0-2.857-2.25-3.426-3.809-3.426-1.777 0-3.414.716-4.053 2.506l1.796.409c.282-.697.997-1.368 2.282-1.368 1.234 0 1.867.645 1.867 1.758v.044c0 .697-.716.684-2.48.889-1.86.217-3.765.703-3.765 2.934 0 1.93 1.451 2.991 3.317 2.991zm.416-1.534c-1.081 0-1.86-.486-1.86-1.432 0-1.022.907-1.387 2.013-1.534.62-.083 2.09-.249 2.365-.524v1.266c0 1.163-.927 2.224-2.518 2.224z" fill="#000"/><path d="m1033.89 255.455c0-4.187-2.51-6.725-5.89-6.725-3.4 0-5.9 2.538-5.9 6.725 0 4.18 2.5 6.724 5.9 6.724 3.38 0 5.89-2.538 5.89-6.724zm-1.96 0c0 3.189-1.68 4.921-3.93 4.921-2.26 0-3.94-1.732-3.94-4.921 0-3.19 1.68-4.922 3.94-4.922 2.25 0 3.93 1.732 3.93 4.922zm4 10.227h1.91v-5.21h.12c.34.627 1.04 1.72 2.83 1.72 2.38 0 4.11-1.905 4.11-5.082 0-3.183-1.75-5.056-4.13-5.056-1.82 0-2.48 1.112-2.81 1.719h-.16v-1.591h-1.87zm1.87-8.591c0-2.052.9-3.413 2.57-3.413 1.73 0 2.6 1.463 2.6 3.413 0 1.969-.9 3.471-2.6 3.471-1.65 0-2.57-1.406-2.57-3.471zm13.55-4.909h-2.01v-2.352h-1.91v2.352h-1.44v1.534h1.44v5.797c-.01 1.784 1.35 2.647 2.86 2.615.61-.007 1.02-.122 1.24-.205l-.34-1.579c-.13.026-.37.084-.68.084-.62 0-1.17-.205-1.17-1.311v-5.401h2.01zm1.85 9.818h1.91v-9.818h-1.91zm.96-11.333c.66 0 1.21-.511 1.21-1.138 0-.626-.55-1.144-1.21-1.144s-1.21.518-1.21 1.144c0 .627.55 1.138 1.21 1.138zm3.25 11.333h1.91v-6.053c0-1.323.93-2.244 2.01-2.244 1.06 0 1.8.703 1.8 1.771v6.526h1.9v-6.258c0-1.182.73-2.039 1.97-2.039 1.01 0 1.84.563 1.84 1.892v6.405h1.92v-6.584c0-2.243-1.26-3.362-3.03-3.362-1.42 0-2.48.678-2.95 1.726h-.1c-.43-1.074-1.33-1.726-2.64-1.726-1.3 0-2.27.646-2.68 1.726h-.12v-1.598h-1.83zm15.64 0h1.91v-9.818h-1.91zm.96-11.333c.66 0 1.21-.511 1.21-1.138 0-.626-.55-1.144-1.21-1.144s-1.21.518-1.21 1.144c0 .627.55 1.138 1.21 1.138zm3.04 11.333h7.89v-1.662h-5.3v-.089l5.12-6.674v-1.393h-7.53v1.662h5.14v.089l-5.32 6.757zm13.82.198c2.14 0 3.66-1.055 4.09-2.653l-1.81-.326c-.34.927-1.17 1.4-2.26 1.4-1.64 0-2.74-1.061-2.79-2.953h6.98v-.677c0-3.548-2.12-4.935-4.34-4.935-2.74 0-4.54 2.084-4.54 5.101 0 3.049 1.78 5.043 4.67 5.043zm-2.76-5.964c.08-1.393 1.09-2.601 2.64-2.601 1.48 0 2.45 1.099 2.46 2.601z" fill="#000"/><path d="m142 40v-1h-1v1zm916 0h1v-1h-1zm-916.707 48.7071c.39.3905 1.024.3905 1.414 0l6.364-6.364c.391-.3905.391-1.0236 0-1.4142-.39-.3905-1.024-.3905-1.414 0l-5.657 5.6569-5.657-5.6569c-.39-.3905-1.024-.3905-1.414 0-.391.3906-.391 1.0237 0 1.4142zm.707-47.7071h916v-2h-916zm915-1v48h2v-48zm-914 48v-48h-2v48z" fill="#a0a0b1"/><rect fill="#fff" height="31" rx="15.5" width="56" x="572" y="25"/><path d="m582.235 45h1.275v-6.5455h-1.275zm.644-7.5554c.439 0 .805-.3409.805-.7585s-.366-.7628-.805-.7628c-.443 0-.805.3452-.805.7628s.362.7585.805.7585zm5.4 1.0099h-1.342v-1.5681h-1.274v1.5681h-.959v1.0228h.959v3.865c-.005 1.1889.903 1.7642 1.909 1.7429.405-.0042.677-.0809.826-.1363l-.23-1.0526c-.085.0171-.243.0554-.447.0554-.413 0-.784-.1364-.784-.8736v-3.6008h1.342zm4.16 6.6776c1.428 0 2.438-.7031 2.728-1.7685l-1.206-.2173c-.231.6179-.785.9332-1.509.9332-1.091 0-1.824-.7073-1.858-1.9687h4.654v-.4517c0-2.3651-1.415-3.2898-2.898-3.2898-1.824 0-3.026 1.3892-3.026 3.4006 0 2.0327 1.185 3.3622 3.115 3.3622zm-1.841-3.9759c.052-.9289.725-1.7343 1.76-1.7343.989 0 1.637.7329 1.641 1.7343zm6.063 3.8438h1.274v-3.9972c0-.8565.661-1.4744 1.564-1.4744.264 0 .563.0469.665.0767v-1.2187c-.128-.0171-.379-.0299-.541-.0299-.767 0-1.423.4347-1.662 1.1378h-.068v-1.0398h-1.232zm6.452.1449c1.082 0 1.692-.5497 1.935-1.0398h.051v.8949h1.244v-4.3466c0-1.9048-1.5-2.2841-2.54-2.2841-1.184 0-2.275.4773-2.701 1.6705l1.197.2727c.188-.4645.665-.9119 1.521-.9119.823 0 1.245.4304 1.245 1.1718v.0299c0 .4645-.478.4559-1.654.5923-1.24.1449-2.51.4688-2.51 1.956 0 1.2869.968 1.9943 2.212 1.9943zm.277-1.0227c-.72 0-1.24-.3239-1.24-.9546 0-.6818.605-.9247 1.342-1.0227.414-.0554 1.394-.1662 1.577-.3494v.8437c0 .7756-.618 1.483-1.679 1.483zm7.706-5.6677h-1.343v-1.5681h-1.274v1.5681h-.959v1.0228h.959v3.865c-.004 1.1889.903 1.7642 1.909 1.7429.405-.0042.678-.0809.827-.1363l-.23-1.0526c-.085.0171-.243.0554-.448.0554-.413 0-.784-.1364-.784-.8736v-3.6008h1.343zm4.16 6.6776c1.427 0 2.437-.7031 2.727-1.7685l-1.206-.2173c-.23.6179-.784.9332-1.509.9332-1.09 0-1.823-.7073-1.857-1.9687h4.653v-.4517c0-2.3651-1.415-3.2898-2.898-3.2898-1.824 0-3.025 1.3892-3.025 3.4006 0 2.0327 1.184 3.3622 3.115 3.3622zm-1.841-3.9759c.051-.9289.724-1.7343 1.76-1.7343.988 0 1.636.7329 1.64 1.7343z" fill="#000"/><rect height="31" rx="15.5" stroke="#a0a0b1" stroke-width="2" width="56" x="572" y="25"/></svg>